<?xml version="1.0" encoding="UTF-8"?>
<!DOCTYPE svg PUBLIC "-//W3C//DTD SVG 1.1//EN" "http://www.w3.org/Graphics/SVG/1.1/DTD/svg11.dtd">
<!-- Creator: CorelDRAW -->
<svg xmlns="http://www.w3.org/2000/svg" viewBox="0 0 50 50"><path d="M 24.984375 -0.013671875 A 1.0001 1.0001 0 0 0 24 1 L 24 4.0253906 C 18.951686 4.2635419 14.37925 6.3082737 10.875 9.5058594 A 1.0001 1.0001 0 0 0 10.707031 9.2929688 L 7.7070312 6.2929688 A 1.0001 1.0001 0 0 0 6.9902344 5.9902344 A 1.0001 1.0001 0 0 0 6.2929688 7.7070312 L 9.2929688 10.707031 A 1.0001 1.0001 0 0 0 9.5058594 10.875 C 6.3082737 14.37925 4.2635419 18.951686 4.0253906 24 L 1 24 A 1.0001 1.0001 0 1 0 1 26 L 4.0253906 26 C 4.2635419 31.048314 6.3082737 35.62075 9.5058594 39.125 A 1.0001 1.0001 0 0 0 9.2929688 39.292969 L 6.2929688 42.292969 A 1.0001 1.0001 0 1 0 7.7070312 43.707031 L 10.707031 40.707031 A 1.0001 1.0001 0 0 0 10.873047 40.492188 C 14.377556 43.690846 18.950707 45.736412 24 45.974609 L 24 49 A 1.0001 1.0001 0 1 0 26 49 L 26 45.974609 C 31.048314 45.736458 35.62075 43.691726 39.125 40.494141 A 1.0001 1.0001 0 0 0 39.292969 40.707031 L 42.292969 43.707031 A 1.0001 1.0001 0 1 0 43.707031 42.292969 L 40.707031 39.292969 A 1.0001 1.0001 0 0 0 40.492188 39.126953 C 43.690846 35.622444 45.736412 31.049293 45.974609 26 L 49 26 A 1.0001 1.0001 0 1 0 49 24 L 45.974609 24 C 45.736458 18.951686 43.691726 14.37925 40.494141 10.875 A 1.0001 1.0001 0 0 0 40.707031 10.707031 L 43.707031 7.7070312 A 1.0001 1.0001 0 0 0 42.980469 5.9902344 A 1.0001 1.0001 0 0 0 42.292969 6.2929688 L 39.292969 9.2929688 A 1.0001 1.0001 0 0 0 39.125 9.5058594 C 35.62075 6.3082737 31.048314 4.2635419 26 4.0253906 L 26 1 A 1.0001 1.0001 0 0 0 24.984375 -0.013671875 z M 19 13 C 22.314 13 25 15.686 25 19 C 25 22.314 22.314 25 19 25 C 15.686 25 13 22.314 13 19 C 13 15.686 15.686 13 19 13 z"></path></svg>
